<svg xmlns="http://www.w3.org/2000/svg" viewBox="0 0 900 520"><defs><linearGradient id="bg" x1="0" y1="0" x2="1" y2="1"><stop offset="0" stop-color="#3a2418"/><stop offset="1" stop-color="#191513"/></linearGradient><linearGradient id="ap" x1="0" y1="0" x2="0" y2="1"><stop offset="0" stop-color="#d9a36b"/><stop offset="1" stop-color="#9d5d39"/></linearGradient></defs><rect width="900" height="520" fill="url(#bg)"/><circle cx="690" cy="130" r="90" fill="#70502e" opacity=".3"/><rect x="0" y="395" width="900" height="125" fill="#101114" opacity=".8"/><ellipse cx="450" cy="395" rx="170" ry="95" fill="#25292e"/><path d="M330 230c0-92 54-151 120-151s120 59 120 151v96c0 68-54 118-120 118s-120-50-120-118z" fill="url(#ap)"/><path d="M326 225c4-108 56-166 124-166 65 0 121 54 124 166l-37-27-20-69c-32 35-93 55-153 53l-14 65z" fill="#34251d"/><circle cx="405" cy="240" r="9" fill="#222"/><circle cx="495" cy="240" r="9" fill="#222"/><path d="M413 299c26 20 48 20 74 0" fill="none" stroke="#5c312a" stroke-width="8" stroke-linecap="round"/><path d="M372 193c26-21 46-25 72-20" fill="none" stroke="#493127" stroke-width="13" stroke-linecap="round"/><path d="M456 174c27-14 50-9 73 13" fill="none" stroke="#493127" stroke-width="13" stroke-linecap="round"/><path d="M322 370c83 33 174 33 257 0l73 150H248z" fill="#3e4b57"/><rect x="640" y="120" width="110" height="18" rx="9" fill="#d7a448" opacity=".6"/><text x="45" y="70" fill="#f4d58a" font-family="Segoe UI,Arial" font-weight="700" font-size="32">Шашлычник Руслан</text><text x="45" y="108" fill="#b9c0ca" font-family="Segoe UI,Arial" font-size="20">Прототип портрета для системы квестов</text></svg>